PathFileType	4	(X/Y/Z)	D:/视觉行为平台/test_2/20260814/mocap/street1/street1-Unnamed.trc
DataRate	CameraRate	NumFrames	NumMarkers	Units	OrigDataRate	OrigDataStartFrame	OrigNumFrames	useTimeStamp
90	90	     97	0	mm	90	2829	     22628	         1
Frame#	Time	Timestamp	
			X1	Y1	Z1	X2	Y2	Z2	X3	Y3	Z3	X4	Y4	Z4	X5	Y5	Z5	X6	Y6	Z6	X7	Y7	Z7	X8	Y8	Z8	X9	Y9	Z9	X10	Y10	Z10	X11	Y11	Z11	X12	Y12	Z12	X13	Y13	Z13	X14	Y14	Z14	X15	Y15	Z15	X16	Y16	Z16	X17	Y17	Z17	X18	Y18	Z18	X19	Y19	Z19	X20	Y20	Z20	X21	Y21	Z21	X22	Y22	Z22	X23	Y23	Z23	X24	Y24	Z24	X25	Y25	Z25	X26	Y26	Z26	X27	Y27	Z27	X28	Y28	Z28	X29	Y29	Z29	X30	Y30	Z30	X31	Y31	Z31	X32	Y32	Z32	X33	Y33	Z33	X34	Y34	Z34	X35	Y35	Z35	X36	Y36	Z36	X37	Y37	Z37	X38	Y38	Z38	X39	Y39	Z39	X40	Y40	Z40	X41	Y41	Z41	X42	Y42	Z42	X43	Y43	Z43	X44	Y44	Z44	X45	Y45	Z45	X46	Y46	Z46	X47	Y47	Z47	X48	Y48	Z48	X49	Y49	Z49	X50	Y50	Z50	X51	Y51	Z51	X52	Y52	Z52	X53	Y53	Z53	X54	Y54	Z54	X55	Y55	Z55	

2829	31.422	1787218978437	382.986664	443.373688	1330.708374	283.765442	875.811279	1310.071777	
2830	31.433	1787218978448	382.854187	443.239288	1330.890625	283.513458	875.522522	1310.379150	
2831	31.444	1787218978460	382.713562	443.261780	1330.862915	283.198181	875.504211	1310.595459	
2832	31.455	1787218978471	382.616699	443.271454	1330.920410	282.829498	875.554810	1310.368652	
2833	31.466	1787218978482	382.561523	443.194153	1331.041504	282.598267	875.493408	1310.371216	
2834	31.477	1787218978493	382.421844	443.179840	1331.046509	282.261169	875.459717	1310.508545	
2835	31.488	1787218978504	382.018250	443.033539	1331.154785	281.957306	874.916016	1311.044189	
2836	31.500	1787218978515	381.819061	442.899292	1331.240234	281.753021	874.872498	1311.026978	
2837	31.511	1787218978526	381.448486	443.106842	1331.185303	281.259155	875.017700	1310.792358	
2838	31.522	1787218978537	381.397858	442.908905	1331.384521	280.832611	874.947205	1310.958008	
2839	31.533	1787218978548	381.312958	442.741730	1331.525513	280.355103	874.758545	1311.133545	
2840	31.544	1787218978560	380.951172	442.757233	1331.625732	280.143005	874.380737	1311.359497	
2841	31.555	1787218978571	380.862335	442.687958	1331.579346	279.700409	874.287964	1311.192505	
2842	31.566	1787218978582	380.770111	442.551636	1331.694702	279.457092	874.363586	1310.751099	
2843	31.577	1787218978593	380.500977	442.726898	1331.710083	279.078644	874.402405	1310.617798	
2844	31.588	1787218978604	380.351593	442.645508	1331.677734	278.657013	874.312927	1310.681641	
2845	31.600	1787218978615	380.027283	442.759247	1331.717285	278.058990	874.110046	1310.879150	
2846	31.611	1787218978626	379.942505	442.646088	1331.880249	277.571075	874.125244	1310.844238	
2847	31.622	1787218978637	379.585205	442.600555	1331.970093	277.370544	874.126587	1310.859375	
2848	31.633	1787218978648	379.368530	442.521393	1332.022217	276.909668	874.338867	1310.580811	
2849	31.644	1787218978659	378.936218	442.509460	1332.150391	276.385864	874.395569	1310.055664	
2850	31.655	1787218978671	378.837402	442.369141	1332.302612	275.827820	874.255188	1309.845825	
2851	31.666	1787218978682	378.681854	442.249237	1332.426636	275.589722	874.036743	1310.026367	
2852	31.677	1787218978693	378.491760	442.141663	1332.533081	275.211578	874.174255	1309.940063	
2853	31.688	1787218978704	378.321564	442.123962	1332.610718	274.905518	874.321960	1309.657349	
2854	31.700	1787218978715	377.964111	442.021423	1332.681641	274.117706	874.046631	1309.584595	
2855	31.711	1787218978726	377.907135	441.898285	1332.734863	273.773102	873.935547	1309.612427	
2856	31.722	1787218978738	377.860565	441.798767	1332.785034	273.181213	873.976501	1309.713745	
2857	31.733	1787218978749	377.783661	441.488373	1332.845093	272.878571	873.905212	1309.741211	
2858	31.744	1787218978760	377.387146	441.875397	1332.602295	272.352142	873.940125	1309.790039	
2859	31.755	1787218978771	377.175995	441.781830	1332.596802	272.069336	873.882629	1309.676392	
2860	31.766	1787218978782	376.981079	441.700653	1332.436401	271.571594	874.083252	1308.925781	
2861	31.777	1787218978793	376.846344	441.653839	1332.485352	271.284424	874.211548	1308.650757	
2862	31.788	1787218978804	376.643311	441.776611	1332.626587	271.105804	873.871582	1309.168457	
2863	31.800	1787218978815	376.358826	441.891113	1332.754028	270.633362	873.863037	1309.062622	
2864	31.811	1787218978826	376.239075	441.869751	1332.754761	270.214233	873.917786	1309.077026	
2865	31.822	1787218978837	376.062378	441.883392	1332.786255	269.777985	873.675537	1308.952881	
2866	31.833	1787218978849	376.052155	441.865021	1332.862793	269.377472	873.753235	1308.823486	
2867	31.844	1787218978860	375.928802	441.743347	1332.829956	269.114075	873.775513	1308.854980	
2868	31.855	1787218978871	375.988159	441.692383	1332.869995	268.961517	873.713379	1308.671875	
2869	31.866	1787218978882	375.846252	441.767761	1332.730225	268.688324	873.532532	1308.914429	
2870	31.877	1787218978893	375.750641	441.764893	1332.759277	268.301086	873.632446	1308.562500	
2871	31.888	1787218978904	375.677856	441.778503	1332.615845	268.123871	873.595703	1308.339844	
2872	31.900	1787218978915	375.577606	441.766785	1332.497314	267.655579	873.357666	1308.131592	
2873	31.911	1787218978926	375.732330	441.382721	1332.424561	267.582336	873.288086	1307.978638	
2874	31.922	1787218978937	375.568207	441.577728	1332.274414	267.440552	873.272156	1307.795288	
2875	31.933	1787218978949	375.625580	441.203156	1332.246460	267.220703	873.225098	1307.431274	
2876	31.944	1787218978960	375.591583	441.261169	1332.086792	267.001404	873.260315	1307.202393	
2877	31.955	1787218978970	375.480316	441.236359	1331.944702	266.750549	873.281311	1306.867188	
2878	31.966	1787218978982	375.149414	441.334747	1331.704834	266.714874	873.297363	1306.657349	
2879	31.977	1787218978993	374.894012	441.245392	1331.526123	266.454498	873.315613	1306.159790	
2880	31.988	1787218979005	374.783875	441.317902	1331.310303	266.166138	873.567322	1305.581909	
2881	32.000	1787218979016	374.326996	441.575623	1330.832764	265.969208	873.310120	1305.643066	
2882	32.011	1787218979026	374.241028	441.608765	1330.818115	265.775452	873.226990	1305.515503	
2883	32.022	1787218979038	374.127106	441.735474	1330.698853	265.722382	873.323059	1305.153564	
2884	32.033	1787218979048	373.633789	441.875214	1330.491943	265.485413	873.488831	1304.767944	
2885	32.044	1787218979060	373.364288	441.534119	1330.432617	265.274567	873.668640	1304.244019	
2886	32.055	1787218979071	372.558411	441.892761	1329.706909	265.020386	873.842712	1303.729248	
2887	32.066	1787218979082	370.810089	442.458984	1328.662598	264.813507	873.714539	1303.981323	
2888	32.077	1787218979093	369.318542	442.516388	1327.568237	264.664917	873.990173	1303.788086	
2889	32.088	1787218979104	368.058197	443.087219	1326.463501	264.162354	874.341492	1303.615723	
2890	32.100	1787218979115	363.139679	443.738190	1323.538086	263.894257	874.553345	1303.415283	
2891	32.111	1787218979126	360.612488	444.307129	1321.894897	263.112091	875.118164	1303.107910	
2892	32.122	1787218979137	354.575928	444.389923	1318.763794	262.217316	875.728088	1302.863403	
2893	32.133	1787218979149	346.183533	444.327179	1315.242554	261.502563	876.121216	1302.754883	
2894	32.144	1787218979160	339.705170	445.289307	1314.099731	260.185059	876.159241	1302.570679	
2895	32.155	1787218979171	332.327454	446.176819	1312.768188	258.879150	876.464600	1302.772705	
2896	32.166	1787218979182	325.548920	446.882874	1311.210327	257.435760	876.541870	1302.442871	
2897	32.177	1787218979193	319.285187	447.465363	1309.651978	255.599213	876.481567	1302.886719	
2898	32.188	1787218979204	313.024841	448.783478	1307.464722	254.052368	876.792664	1302.755249	
2899	32.200	1787218979215	306.907867	450.260986	1305.484131	252.307281	876.833069	1302.985840	
2900	32.211	1787218979226	301.112885	451.583435	1303.987183	250.320541	877.116638	1303.393066	
2901	32.222	1787218979238	295.711395	453.336853	1302.276001	248.772659	877.235168	1303.623413	
2902	32.233	1787218979248	290.702789	454.901245	1300.537842	246.641205	877.685181	1303.367065	
2903	32.244	1787218979260	286.077301	456.237457	1299.008179	244.761307	878.244324	1303.125000	
2904	32.255	1787218979271	281.471558	458.229248	1297.899536	242.824982	877.885437	1304.260620	
2905	32.266	1787218979282	277.497955	459.635010	1297.041016	240.936127	878.273499	1304.277832	
2906	32.277	1787218979293	273.459381	461.414673	1296.087769	238.904282	878.918213	1304.309692	
2907	32.288	1787218979304	270.165253	462.525787	1295.291016	236.666977	879.271545	1304.312744	
2908	32.300	1787218979315	267.092377	463.725677	1294.471436	234.287720	879.266418	1304.682129	
2909	32.311	1787218979326	264.245239	464.366913	1293.575073	231.847168	879.093140	1305.162842	
2910	32.322	1787218979338	261.560516	464.986511	1292.641602	229.384155	879.136780	1305.498047	
2911	32.333	1787218979349	258.698151	465.007538	1291.137085	226.703415	879.136353	1305.568848	
2912	32.344	1787218979359	256.464905	465.218140	1289.842773	
2913	32.355	1787218979371	255.279831	464.394196	1288.985718	
2914	32.366	1787218979382	253.675934	464.379028	1287.833740	
2915	32.377	1787218979393	252.527405	463.453918	1287.012817	
2916	32.388	1787218979404	251.924576	462.488831	1286.545044	
2917	32.400	1787218979415	250.963928	461.481384	1286.386353	
2918	32.411	1787218979426	250.495850	460.205627	1286.808594	
2919	32.422	1787218979437	250.522079	458.036255	1287.928101	
2920	32.433	1787218979449	250.055176	456.409332	1288.992798	200.819580	841.813477	1389.887573	
2921	32.444	1787218979460	249.436203	454.036926	1290.649658	196.804947	841.436523	1389.998779	
2922	32.455	1787218979470	248.423248	451.615051	1291.908081	192.908539	841.106750	1390.014404	
2923	32.466	1787218979482	247.113586	449.874634	1292.373169	188.712112	840.136353	1389.687866	
2924	32.477	1787218979493	246.123886	447.911621	1293.828491	184.248245	839.260864	1389.017456	
2925	32.488	1787218979504	245.036255	446.975098	1295.282715	180.436386	838.890625	1388.686523	
